<?xml version="1.0" encoding="UTF-8"?>
<svg id="Camada_2" data-name="Camada 2" xmlns="http://www.w3.org/2000/svg" viewBox="0 0 116.97 614.28">
  <defs>
    <style>
      .cls-1 {
        fill: #ff1b3b;
      }

      .cls-2 {
        fill: #a6a8ab;
      }
    </style>
  </defs>
  <g id="Camada_1-2" data-name="Camada 1">
    <g>
      <path class="cls-1" d="M15.9,183.58c25.12-34.54,90.22-15.36,97.79,25.7,4.38,23.76,4.37,171.32,0,195.14-9.8,53.44-99.93,59.47-109.85,5-5.52-30.32-4.55-167.66-.47-200.57,1.6-12.92,5.82-16.03,12.53-25.26Z"/>
      <path class="cls-2" d="M42.26,508.58c87.1-20.18,88.94,131.01-3.85,101.98-45.64-14.28-37.68-92.35,3.85-101.98Z"/>
      <path class="cls-2" d="M42.25,1.96c79.71-18.23,89.1,96.78,13.96,94.65C-2.05,94.96-7.13,13.26,42.25,1.96Z"/>
    </g>
  </g>
</svg>